<svg width="144" height="117" viewBox="0 0 144 117" fill="none" xmlns="http://www.w3.org/2000/svg">
<circle cx="72.23" cy="59.0013" r="54.9544" stroke="white" stroke-width="6"/>
<path d="M110.412 98.5819C100.215 89.6447 86.8551 84.2275 72.2302 84.2275C57.6054 84.2275 44.2458 89.6447 34.0485 98.5819" stroke="white" stroke-width="6"/>
<path d="M111.094 18.7745C100.896 27.7117 87.5367 33.1289 72.9119 33.1289C58.287 33.1289 44.9274 27.7117 34.7302 18.7745" stroke="white" stroke-width="6"/>
<path d="M101.275 59.0013C101.275 74.5955 97.774 88.565 92.2642 98.5295C86.6966 108.599 79.4877 113.956 72.2301 113.956C64.9725 113.956 57.7636 108.599 52.196 98.5295C46.6862 88.565 43.1848 74.5955 43.1848 59.0013C43.1848 43.407 46.6862 29.4375 52.196 19.473C57.7636 9.4039 64.9725 4.04688 72.2301 4.04688C79.4877 4.04688 86.6966 9.4039 92.2642 19.473C97.774 29.4375 101.275 43.407 101.275 59.0013Z" stroke="white" stroke-width="6"/>
<rect x="17.0029" y="56.9551" width="110.454" height="5.45453" fill="white"/>
<rect x="74.9573" y="4.45605" width="110.454" height="5.45453" transform="rotate(90 74.9573 4.45605)" fill="white"/>
<path d="M76.1558 70.3591C57.8175 76.4919 40.7813 80.4755 28.0953 81.9863C21.7272 82.7446 16.6157 82.8595 13.0383 82.3824C11.2429 82.1429 10.0053 81.7755 9.22941 81.3827C8.85369 81.1924 8.64431 81.0252 8.53625 80.9157C8.48411 80.8629 8.4572 80.8252 8.4444 80.8049C8.43217 80.7856 8.42832 80.775 8.42675 80.7703C8.42518 80.7656 8.4219 80.7548 8.42001 80.732C8.41803 80.7081 8.41688 80.6618 8.42674 80.5883C8.44718 80.4358 8.51384 80.1762 8.69955 79.7983C9.08301 79.0178 9.85055 77.9797 11.1407 76.7083C13.7114 74.1751 17.8637 71.192 23.4068 67.9669C34.4494 61.5421 50.4546 54.4757 68.7929 48.3429C87.1312 42.21 104.167 38.2264 116.853 36.7157C123.221 35.9573 128.333 35.8424 131.91 36.3195C133.706 36.559 134.943 36.9265 135.719 37.3193C136.095 37.5095 136.304 37.6767 136.412 37.7862C136.465 37.8391 136.491 37.8767 136.504 37.897C136.517 37.9164 136.52 37.927 136.522 37.9316C136.524 37.9363 136.527 37.9471 136.529 37.9699C136.531 37.9938 136.532 38.0401 136.522 38.1137C136.502 38.2662 136.435 38.5257 136.249 38.9037C135.866 39.6842 135.098 40.7222 133.808 41.9936C131.237 44.5268 127.085 47.51 121.542 50.7351C110.499 57.1599 94.4941 64.2262 76.1558 70.3591Z" stroke="url(#paint0_linear_2816_7)" stroke-width="6" stroke-linecap="round" stroke-linejoin="round"/>
<rect x="75.6394" y="5.1377" width="51.818" height="6.81816" transform="rotate(90 75.6394 5.1377)" fill="white"/>
<path d="M43.4999 67.001C40.9997 37.001 51.7757 6.5007 72.2302 3.77344C87.5971 3.77344 99.4997 27.001 101 52.001" stroke="white" stroke-width="6"/>
<path d="M20 76.001C17.9243 70.3279 17 64.2144 17 57.8425C17 28.1066 41.6243 4.00098 72 4.00098C96.9308 4.00098 117.987 20.2392 124.735 42.501" stroke="white" stroke-width="6"/>
<defs>
<linearGradient id="paint0_linear_2816_7" x1="137.2" y1="30.5005" x2="131.993" y2="80.574" gradientUnits="userSpaceOnUse">
<stop stop-color="#FFCE5A"/>
<stop offset="1" stop-color="#FF8F48"/>
</linearGradient>
</defs>
</svg>
