<svg width="102" height="132" viewBox="0 0 102 132" fill="none" xmlns="http://www.w3.org/2000/svg">
<path d="M51.5 105.411C112.5 35.9114 53 -0.588631 35 51.9114" stroke="url(#paint0_linear_2818_84)" stroke-width="10" stroke-linecap="round"/>
<rect x="3.00003" y="3" width="96" height="125" rx="17" stroke="white" stroke-width="6"/>
<circle cx="23.1455" cy="108.145" r="20.1455" fill="#2C2536" stroke="white" stroke-width="6" stroke-linejoin="round"/>
<mask id="path-4-inside-1_2818_84" fill="white">
<path fill-rule="evenodd" clip-rule="evenodd" d="M25.1818 99C25.1818 98.4477 24.734 98 24.1818 98H21.309C20.7567 98 20.309 98.4477 20.309 99V104.31C20.309 104.862 19.8613 105.31 19.309 105.31L14 105.31C13.4477 105.31 13 105.757 13 106.31L13 109.182C13 109.735 13.4477 110.182 14 110.182H19.309C19.8613 110.182 20.309 110.63 20.309 111.182V116.491C20.309 117.043 20.7567 117.491 21.309 117.491H24.1818C24.734 117.491 25.1818 117.043 25.1818 116.491V111.182C25.1818 110.63 25.6295 110.182 26.1818 110.182H31.4909C32.0432 110.182 32.4909 109.735 32.4909 109.182V106.31C32.4909 105.757 32.0432 105.31 31.4909 105.31L26.1818 105.31C25.6295 105.31 25.1818 104.862 25.1818 104.31V99Z"/>
</mask>
<path d="M26.1817 105.31L26.1817 111.31L26.1817 105.31ZM14 105.31L14 111.31L14 105.31ZM21.309 104H24.1817V92H21.309V104ZM26.309 104.31V99H14.309V104.31H26.309ZM14 111.31L19.309 111.31L19.309 99.3096L14 99.3096L14 111.31ZM19 109.182L19 106.31L6.99999 106.31L6.99999 109.182L19 109.182ZM19.309 104.182H14V116.182H19.309V104.182ZM26.309 116.491V111.182H14.309V116.491H26.309ZM24.1817 111.491H21.309V123.491H24.1817V111.491ZM19.1817 111.182V116.491H31.1817V111.182H19.1817ZM31.4909 104.182H26.1817V116.182H31.4909V104.182ZM26.4909 106.31V109.182H38.4909V106.31H26.4909ZM26.1817 111.31L31.4909 111.31L31.4909 99.3096L26.1817 99.3096L26.1817 111.31ZM19.1817 99V104.31H31.1817V99H19.1817ZM26.1817 99.3096C28.9432 99.3096 31.1817 101.548 31.1817 104.31H19.1817C19.1817 108.176 22.3157 111.31 26.1817 111.31L26.1817 99.3096ZM38.4909 106.31C38.4909 102.444 35.3569 99.3096 31.4909 99.3096L31.4909 111.31C28.7295 111.31 26.4909 109.071 26.4909 106.31H38.4909ZM31.4909 116.182C35.3569 116.182 38.4909 113.048 38.4909 109.182H26.4909C26.4909 106.421 28.7295 104.182 31.4909 104.182V116.182ZM31.1817 111.182C31.1817 113.944 28.9432 116.182 26.1817 116.182V104.182C22.3158 104.182 19.1817 107.316 19.1817 111.182H31.1817ZM24.1817 123.491C28.0477 123.491 31.1817 120.357 31.1817 116.491H19.1817C19.1817 113.729 21.4203 111.491 24.1817 111.491V123.491ZM14.309 116.491C14.309 120.357 17.443 123.491 21.309 123.491V111.491C24.0704 111.491 26.309 113.729 26.309 116.491H14.309ZM19.309 116.182C16.5476 116.182 14.309 113.944 14.309 111.182H26.309C26.309 107.316 23.175 104.182 19.309 104.182V116.182ZM6.99999 109.182C6.99999 113.048 10.134 116.182 14 116.182V104.182C16.7614 104.182 19 106.421 19 109.182L6.99999 109.182ZM14 99.3096C10.134 99.3096 6.99999 102.444 6.99999 106.31L19 106.31C19 109.071 16.7614 111.31 14 111.31L14 99.3096ZM14.309 104.31C14.309 101.548 16.5476 99.3096 19.309 99.3096L19.309 111.31C23.175 111.31 26.309 108.176 26.309 104.31H14.309ZM24.1817 104C21.4203 104 19.1817 101.761 19.1817 99H31.1817C31.1817 95.134 28.0477 92 24.1817 92V104ZM21.309 92C17.443 92 14.309 95.134 14.309 99H26.309C26.309 101.761 24.0704 104 21.309 104V92Z" fill="url(#paint1_linear_2818_84)" mask="url(#path-4-inside-1_2818_84)"/>
<defs>
<linearGradient id="paint0_linear_2818_84" x1="49" y1="28.9114" x2="49" y2="111.911" gradientUnits="userSpaceOnUse">
<stop stop-color="#FFB052"/>
<stop offset="1" stop-color="#EF433F" stop-opacity="0.65"/>
</linearGradient>
<linearGradient id="paint1_linear_2818_84" x1="18.1871" y1="98" x2="24.5361" y2="111.925" gradientUnits="userSpaceOnUse">
<stop stop-color="#FFCE5A"/>
<stop offset="1" stop-color="#FF8F48"/>
</linearGradient>
</defs>
</svg>
