<svg width="102" height="131" viewBox="0 0 102 131" fill="none" xmlns="http://www.w3.org/2000/svg">
<path d="M24 103.5C101 69 77.5 29.5 54 29.5" stroke="url(#paint0_linear_2819_127)" stroke-width="10" stroke-linecap="round"/>
<rect x="3" y="3" width="96" height="125" rx="17" stroke="white" stroke-width="6"/>
<mask id="path-3-inside-1_2819_127" fill="white">
<path fill-rule="evenodd" clip-rule="evenodd" d="M19.8269 34.238C18.5372 32.3494 17.7784 30.0372 17.7784 27.5397C17.7784 21.1665 22.7194 16 28.8144 16C34.8716 16 39.789 21.1026 39.8498 27.4213C39.8878 27.4209 39.9259 27.4207 39.9641 27.4207C46.0591 27.4207 51 32.5872 51 38.9604C51 42.7792 49.226 46.1647 46.4927 48.2651C48.4367 50.3454 49.6348 53.1911 49.6348 56.3294C49.6348 62.7025 44.6938 67.869 38.5988 67.869C37.7321 67.869 36.8887 67.7645 36.0795 67.567C34.0574 70.2163 30.9428 71.9138 27.4491 71.9138C21.3541 71.9138 16.4132 66.7474 16.4132 60.3742C16.4132 58.2396 16.9675 56.2403 17.9338 54.5252C14.96 52.4579 13 48.9226 13 44.9086C13 40.094 15.8199 35.968 19.8269 34.238Z"/>
</mask>
<path fill-rule="evenodd" clip-rule="evenodd" d="M19.8269 34.238C18.5372 32.3494 17.7784 30.0372 17.7784 27.5397C17.7784 21.1665 22.7194 16 28.8144 16C34.8716 16 39.789 21.1026 39.8498 27.4213C39.8878 27.4209 39.9259 27.4207 39.9641 27.4207C46.0591 27.4207 51 32.5872 51 38.9604C51 42.7792 49.226 46.1647 46.4927 48.2651C48.4367 50.3454 49.6348 53.1911 49.6348 56.3294C49.6348 62.7025 44.6938 67.869 38.5988 67.869C37.7321 67.869 36.8887 67.7645 36.0795 67.567C34.0574 70.2163 30.9428 71.9138 27.4491 71.9138C21.3541 71.9138 16.4132 66.7474 16.4132 60.3742C16.4132 58.2396 16.9675 56.2403 17.9338 54.5252C14.96 52.4579 13 48.9226 13 44.9086C13 40.094 15.8199 35.968 19.8269 34.238Z" fill="#26212E"/>
<path d="M19.8269 34.238L23.1302 31.9823L25.8654 35.9877L21.4124 37.9103L19.8269 34.238ZM39.8498 27.4213L39.8922 31.4211L35.8884 31.4636L35.8499 27.4598L39.8498 27.4213ZM46.4927 48.2651L43.5702 50.9962L40.5625 47.7776L44.0554 45.0935L46.4927 48.2651ZM36.0795 67.567L32.8998 65.1401L34.487 63.0606L37.0283 63.6811L36.0795 67.567ZM17.9338 54.5252L20.217 51.2409L23.205 53.3181L21.4187 56.4887L17.9338 54.5252ZM21.7784 27.5397C21.7784 29.2187 22.2867 30.747 23.1302 31.9823L16.5236 36.4937C14.7878 33.9518 13.7784 30.8557 13.7784 27.5397H21.7784ZM28.8144 20C25.0949 20 21.7784 23.2055 21.7784 27.5397H13.7784C13.7784 19.1275 20.3439 12 28.8144 12V20ZM35.8499 27.4598C35.8087 23.1652 32.5113 20 28.8144 20V12C37.2319 12 43.7694 19.0401 43.8496 27.3829L35.8499 27.4598ZM39.9641 31.4207C39.9403 31.4207 39.9164 31.4208 39.8922 31.4211L39.8073 23.4215C39.8593 23.421 39.9115 23.4207 39.9641 23.4207V31.4207ZM47 38.9604C47 34.6262 43.6836 31.4207 39.9641 31.4207V23.4207C48.4346 23.4207 55 30.5482 55 38.9604H47ZM44.0554 45.0935C45.8121 43.7436 47 41.5258 47 38.9604H55C55 44.0325 52.64 48.5859 48.93 51.4368L44.0554 45.0935ZM45.6348 56.3294C45.6348 54.2214 44.833 52.3476 43.5702 50.9962L49.4153 45.5341C52.0404 48.3433 53.6348 52.1608 53.6348 56.3294H45.6348ZM38.5988 63.869C42.3183 63.869 45.6348 60.6635 45.6348 56.3294H53.6348C53.6348 64.7415 47.0693 71.869 38.5988 71.869V63.869ZM37.0283 63.6811C37.5299 63.8036 38.0548 63.869 38.5988 63.869V71.869C37.4093 71.869 36.2475 71.7255 35.1307 71.4528L37.0283 63.6811ZM27.4491 67.9138C29.6028 67.9138 31.5762 66.8742 32.8998 65.1401L39.2591 69.9939C36.5385 73.5583 32.2829 75.9138 27.4491 75.9138V67.9138ZM20.4132 60.3742C20.4132 64.7084 23.7297 67.9138 27.4491 67.9138V75.9138C18.9786 75.9138 12.4132 68.7864 12.4132 60.3742H20.4132ZM21.4187 56.4887C20.7848 57.6137 20.4132 58.938 20.4132 60.3742H12.4132C12.4132 57.5411 13.1501 54.8669 14.4488 52.5618L21.4187 56.4887ZM17 44.9086C17 47.606 18.3131 49.9173 20.217 51.2409L15.6505 57.8096C11.6069 54.9985 9.00001 50.2393 9.00001 44.9086H17ZM21.4124 37.9103C18.8934 38.9979 17 41.6655 17 44.9086H9.00001C9.00001 38.5225 12.7463 32.9381 18.2413 30.5656L21.4124 37.9103Z" fill="white" mask="url(#path-3-inside-1_2819_127)"/>
<mask id="path-5-inside-2_2819_127" fill="white">
<path fill-rule="evenodd" clip-rule="evenodd" d="M19.8269 34.3495C18.5372 32.4609 17.7784 30.1487 17.7784 27.6512C17.7784 21.278 22.7194 16.1116 28.8144 16.1116C34.8716 16.1116 39.789 21.2142 39.8498 27.5329C39.8878 27.5325 39.9259 27.5323 39.9641 27.5323C46.0591 27.5323 51 32.6987 51 39.0719C51 42.8907 49.226 46.2763 46.4927 48.3767C48.4367 50.457 49.6348 53.3026 49.6348 56.4409C49.6348 62.8141 44.6938 67.9806 38.5988 67.9806C37.7321 67.9806 36.8887 67.8761 36.0795 67.6785C34.0574 70.3278 30.9428 72.0254 27.4491 72.0254C21.3541 72.0254 16.4132 66.8589 16.4132 60.4857C16.4132 58.3511 16.9675 56.3519 17.9338 54.6368C14.96 52.5695 13 49.0342 13 45.0202C13 40.2055 15.8199 36.0796 19.8269 34.3495Z"/>
</mask>
<path fill-rule="evenodd" clip-rule="evenodd" d="M19.8269 34.3495C18.5372 32.4609 17.7784 30.1487 17.7784 27.6512C17.7784 21.278 22.7194 16.1116 28.8144 16.1116C34.8716 16.1116 39.789 21.2142 39.8498 27.5329C39.8878 27.5325 39.9259 27.5323 39.9641 27.5323C46.0591 27.5323 51 32.6987 51 39.0719C51 42.8907 49.226 46.2763 46.4927 48.3767C48.4367 50.457 49.6348 53.3026 49.6348 56.4409C49.6348 62.8141 44.6938 67.9806 38.5988 67.9806C37.7321 67.9806 36.8887 67.8761 36.0795 67.6785C34.0574 70.3278 30.9428 72.0254 27.4491 72.0254C21.3541 72.0254 16.4132 66.8589 16.4132 60.4857C16.4132 58.3511 16.9675 56.3519 17.9338 54.6368C14.96 52.5695 13 49.0342 13 45.0202C13 40.2055 15.8199 36.0796 19.8269 34.3495Z" fill="#26212E"/>
<path d="M19.8269 34.3495L23.1302 32.0938L25.8654 36.0993L21.4124 38.0218L19.8269 34.3495ZM39.8498 27.5328L39.8922 31.5326L35.8884 31.5751L35.8499 27.5713L39.8498 27.5328ZM46.4927 48.3767L43.5702 51.1077L40.5625 47.8891L44.0554 45.205L46.4927 48.3767ZM36.0795 67.6785L32.8998 65.2516L34.487 63.1722L37.0283 63.7927L36.0795 67.6785ZM17.9338 54.6368L20.217 51.3524L23.205 53.4297L21.4187 56.6002L17.9338 54.6368ZM21.7784 27.6512C21.7784 29.3302 22.2867 30.8585 23.1302 32.0938L16.5236 36.6052C14.7878 34.0633 13.7784 30.9672 13.7784 27.6512H21.7784ZM28.8144 20.1115C25.0949 20.1115 21.7784 23.317 21.7784 27.6512H13.7784C13.7784 19.239 20.3439 12.1115 28.8144 12.1115V20.1115ZM35.8499 27.5713C35.8087 23.2767 32.5113 20.1115 28.8144 20.1115V12.1115C37.2319 12.1115 43.7694 19.1516 43.8496 27.4944L35.8499 27.5713ZM39.9641 31.5322C39.9403 31.5322 39.9164 31.5324 39.8922 31.5326L39.8073 23.5331C39.8593 23.5325 39.9115 23.5322 39.9641 23.5322V31.5322ZM47 39.0719C47 34.7377 43.6836 31.5322 39.9641 31.5322V23.5322C48.4346 23.5322 55 30.6597 55 39.0719H47ZM44.0554 45.205C45.8121 43.8551 47 41.6373 47 39.0719H55C55 44.1441 52.64 48.6974 48.93 51.5484L44.0554 45.205ZM45.6348 56.4409C45.6348 54.3329 44.833 52.4591 43.5702 51.1077L49.4153 45.6456C52.0404 48.4548 53.6348 52.2723 53.6348 56.4409H45.6348ZM38.5988 63.9806C42.3183 63.9806 45.6348 60.7751 45.6348 56.4409H53.6348C53.6348 64.8531 47.0693 71.9806 38.5988 71.9806V63.9806ZM37.0283 63.7927C37.5299 63.9151 38.0548 63.9806 38.5988 63.9806V71.9806C37.4093 71.9806 36.2475 71.837 35.1307 71.5643L37.0283 63.7927ZM27.4491 68.0254C29.6028 68.0254 31.5762 66.9858 32.8998 65.2516L39.2591 70.1054C36.5385 73.6699 32.2829 76.0254 27.4491 76.0254V68.0254ZM20.4132 60.4857C20.4132 64.8199 23.7297 68.0254 27.4491 68.0254V76.0254C18.9786 76.0254 12.4132 68.8979 12.4132 60.4857H20.4132ZM21.4187 56.6002C20.7848 57.7253 20.4132 59.0496 20.4132 60.4857H12.4132C12.4132 57.6527 13.1501 54.9785 14.4488 52.6733L21.4187 56.6002ZM17 45.0202C17 47.7175 18.3131 50.0289 20.217 51.3524L15.6505 57.9211C11.6069 55.11 9.00001 50.3508 9.00001 45.0202H17ZM21.4124 38.0218C18.8934 39.1094 17 41.777 17 45.0202H9.00001C9.00001 38.634 12.7463 33.0497 18.2413 30.6772L21.4124 38.0218Z" fill="white" mask="url(#path-5-inside-2_2819_127)"/>
<line x1="34.1088" y1="50.7817" x2="34.1088" y2="84.0834" stroke="white" stroke-width="4"/>
<circle cx="76.1455" cy="107.145" r="20.1455" fill="#2C2536" stroke="white" stroke-width="6" stroke-linejoin="round"/>
<mask id="path-9-inside-3_2819_127" fill="white">
<path fill-rule="evenodd" clip-rule="evenodd" d="M78.1818 98C78.1818 97.4477 77.734 97 77.1818 97H74.309C73.7567 97 73.309 97.4477 73.309 98V103.31C73.309 103.862 72.8613 104.31 72.309 104.31L67 104.31C66.4477 104.31 66 104.757 66 105.31L66 108.182C66 108.735 66.4477 109.182 67 109.182H72.309C72.8613 109.182 73.309 109.63 73.309 110.182V115.491C73.309 116.043 73.7567 116.491 74.309 116.491H77.1818C77.734 116.491 78.1818 116.043 78.1818 115.491V110.182C78.1818 109.63 78.6295 109.182 79.1818 109.182H84.4909C85.0432 109.182 85.4909 108.735 85.4909 108.182V105.31C85.4909 104.757 85.0432 104.31 84.4909 104.31L79.1818 104.31C78.6295 104.31 78.1818 103.862 78.1818 103.31V98Z"/>
</mask>
<path d="M79.1818 104.31L79.1818 110.31L79.1818 104.31ZM67 104.31L67 110.31L67 104.31ZM74.309 103H77.1818V91H74.309V103ZM79.309 103.31V98H67.309V103.31H79.309ZM67 110.31L72.309 110.31L72.309 98.3096L67 98.3096L67 110.31ZM72 108.182L72 105.31L60 105.31L60 108.182L72 108.182ZM72.309 103.182H67V115.182H72.309V103.182ZM79.309 115.491V110.182H67.309V115.491H79.309ZM77.1818 110.491H74.309V122.491H77.1818V110.491ZM72.1818 110.182V115.491H84.1818V110.182H72.1818ZM84.4909 103.182H79.1818V115.182H84.4909V103.182ZM79.4909 105.31V108.182H91.4909V105.31H79.4909ZM79.1818 110.31L84.4909 110.31L84.4909 98.3096L79.1818 98.3096L79.1818 110.31ZM72.1818 98V103.31H84.1818V98H72.1818ZM79.1818 98.3096C81.9432 98.3096 84.1818 100.548 84.1818 103.31H72.1818C72.1818 107.176 75.3158 110.31 79.1818 110.31L79.1818 98.3096ZM91.4909 105.31C91.4909 101.444 88.3569 98.3096 84.4909 98.3096L84.4909 110.31C81.7295 110.31 79.4909 108.071 79.4909 105.31H91.4909ZM84.4909 115.182C88.3569 115.182 91.4909 112.048 91.4909 108.182H79.4909C79.4909 105.421 81.7295 103.182 84.4909 103.182V115.182ZM84.1818 110.182C84.1818 112.944 81.9432 115.182 79.1818 115.182V103.182C75.3158 103.182 72.1818 106.316 72.1818 110.182H84.1818ZM77.1818 122.491C81.0477 122.491 84.1818 119.357 84.1818 115.491H72.1818C72.1818 112.729 74.4203 110.491 77.1818 110.491V122.491ZM67.309 115.491C67.309 119.357 70.443 122.491 74.309 122.491V110.491C77.0704 110.491 79.309 112.729 79.309 115.491H67.309ZM72.309 115.182C69.5476 115.182 67.309 112.944 67.309 110.182H79.309C79.309 106.316 76.175 103.182 72.309 103.182V115.182ZM60 108.182C60 112.048 63.134 115.182 67 115.182V103.182C69.7614 103.182 72 105.421 72 108.182L60 108.182ZM67 98.3096C63.134 98.3096 60 101.444 60 105.31L72 105.31C72 108.071 69.7614 110.31 67 110.31L67 98.3096ZM67.309 103.31C67.309 100.548 69.5476 98.3096 72.309 98.3096L72.309 110.31C76.175 110.31 79.309 107.176 79.309 103.31H67.309ZM77.1818 103C74.4203 103 72.1818 100.761 72.1818 98H84.1818C84.1818 94.134 81.0477 91 77.1818 91V103ZM74.309 91C70.443 91 67.309 94.134 67.309 98H79.309C79.309 100.761 77.0704 103 74.309 103V91Z" fill="url(#paint1_linear_2819_127)" mask="url(#path-9-inside-3_2819_127)"/>
<defs>
<linearGradient id="paint0_linear_2819_127" x1="58.8859" y1="28.877" x2="58.8859" y2="110.383" gradientUnits="userSpaceOnUse">
<stop stop-color="#FFB052"/>
<stop offset="1" stop-color="#EF433F" stop-opacity="0.65"/>
</linearGradient>
<linearGradient id="paint1_linear_2819_127" x1="71.1871" y1="97" x2="77.5361" y2="110.925" gradientUnits="userSpaceOnUse">
<stop stop-color="#FFCE5A"/>
<stop offset="1" stop-color="#FF8F48"/>
</linearGradient>
</defs>
</svg>
