<?xml version="1.0" encoding="utf-8"?>
<!-- Generator: Adobe Illustrator 24.1.0, SVG Export Plug-In . SVG Version: 6.00 Build 0)  -->
<svg version="1.1" id="Layer_1" xmlns="http://www.w3.org/2000/svg" xmlns:xlink="http://www.w3.org/1999/xlink" x="0px" y="0px"
	 viewBox="0 0 75 48.29" style="enable-background:new 0 0 75 48.29;" xml:space="preserve">
<style type="text/css">
	.st0{fill:url(#SVGID_1_);}
	.st1{fill:#FFFFFF;}
</style>
<linearGradient id="SVGID_1_" gradientUnits="userSpaceOnUse" x1="18.8227" y1="41.6728" x2="67.4387" y2="13.6043">
	<stop  offset="0" style="stop-color:#F5884B;stop-opacity:0"/>
	<stop  offset="1" style="stop-color:#FFCF5A"/>
</linearGradient>
<path class="st0" d="M51.24,4.73c0,0,12.9,3.15,9.11,11.11c-3.8,7.96-26.85,15.52-44.01,12.6l6.31,19.84
	c23.7-1.41,42.1-11.36,45.29-26.61C71.24,5.88,51.24,4.73,51.24,4.73"/>
<g>
	<g>
		<path class="st1" d="M17.27,17.62L10.35,1.13C10.22,0.78,10.01,0.5,9.72,0.3c-0.29-0.2-0.6-0.3-0.94-0.3
			c-0.36-0.04-0.69,0.05-1,0.25c-0.31,0.21-0.54,0.5-0.69,0.87L0.08,17.96C0.03,18.15,0,18.32,0,18.49c0,0.41,0.12,0.76,0.37,1.04
			s0.62,0.42,1.13,0.42c0.32,0,0.61-0.1,0.89-0.3c0.27-0.2,0.47-0.47,0.6-0.83l1.46-3.43h8.39l1.46,3.4
			c0.15,0.36,0.36,0.64,0.63,0.84c0.27,0.21,0.58,0.31,0.91,0.31c0.39,0,0.75-0.15,1.08-0.45c0.33-0.3,0.49-0.7,0.49-1.21
			C17.42,18.09,17.37,17.86,17.27,17.62z M5.82,12.16l2.8-6.58l2.83,6.58H5.82z"/>
		<path class="st1" d="M26.08,4.48c1.07,0,2,0.11,2.8,0.34c0.8,0.23,1.42,0.54,1.86,0.94c0.44,0.4,0.66,0.89,0.66,1.45
			c0,0.38-0.11,0.73-0.34,1.06c-0.23,0.33-0.55,0.49-0.98,0.49c-0.3,0-0.55-0.04-0.75-0.13c-0.2-0.08-0.37-0.19-0.52-0.32
			c-0.15-0.13-0.33-0.25-0.53-0.37c-0.19-0.11-0.47-0.2-0.86-0.27c-0.38-0.07-0.67-0.1-0.86-0.1c-0.96,0-1.77,0.21-2.43,0.62
			c-0.67,0.41-1.18,0.97-1.53,1.67c-0.36,0.7-0.53,1.52-0.53,2.43c0,0.9,0.18,1.7,0.55,2.41c0.37,0.7,0.87,1.26,1.52,1.67
			C24.77,16.8,25.52,17,26.36,17c0.47,0,0.87-0.03,1.21-0.08c0.34-0.06,0.62-0.14,0.84-0.25c0.26-0.15,0.5-0.31,0.7-0.48
			c0.21-0.17,0.52-0.25,0.93-0.25c0.49,0,0.86,0.15,1.13,0.46c0.26,0.31,0.39,0.69,0.39,1.14c0,0.47-0.26,0.9-0.79,1.28
			c-0.53,0.38-1.21,0.69-2.07,0.93s-1.78,0.35-2.77,0.35c-1.48,0-2.77-0.34-3.85-1.03c-1.09-0.68-1.93-1.62-2.52-2.8
			s-0.89-2.5-0.89-3.97c0-1.54,0.31-2.89,0.94-4.07c0.63-1.17,1.5-2.09,2.62-2.76C23.36,4.82,24.64,4.48,26.08,4.48z"/>
		<path class="st1" d="M46.98,13.04c0.34-0.28,0.52-0.65,0.53-1.1c0-1.01-0.19-1.97-0.58-2.87s-0.9-1.69-1.56-2.38
			c-0.66-0.68-1.41-1.22-2.27-1.62c-0.85-0.39-1.76-0.59-2.71-0.59c-1.24,0-2.41,0.32-3.52,0.96c-1.11,0.64-2,1.55-2.69,2.74
			c-0.69,1.19-1.03,2.63-1.03,4.32c0,1.44,0.31,2.74,0.94,3.88c0.63,1.14,1.53,2.05,2.7,2.72c1.17,0.67,2.56,1,4.15,1
			c0.94,0,1.85-0.15,2.73-0.46c0.88-0.31,1.57-0.67,2.05-1.08c0.52-0.41,0.79-0.87,0.79-1.38c0-0.38-0.14-0.7-0.41-0.98
			c-0.27-0.28-0.61-0.42-1.03-0.42c-0.3,0-0.62,0.08-0.96,0.25c-0.21,0.11-0.44,0.25-0.69,0.41c-0.25,0.16-0.59,0.3-1,0.41
			C42.04,16.95,41.49,17,40.8,17c-0.75,0-1.46-0.18-2.12-0.55c-0.67-0.37-1.21-0.9-1.63-1.6c-0.25-0.41-0.41-0.88-0.51-1.39h9.28
			C46.25,13.46,46.65,13.32,46.98,13.04z M37.56,8.56c0.36-0.36,0.78-0.61,1.27-0.76c0.49-0.15,1.01-0.23,1.58-0.23
			c0.58,0,1.13,0.13,1.65,0.38c0.52,0.25,0.95,0.6,1.29,1.03c0.35,0.43,0.54,0.92,0.58,1.46v0.2h-7.37c0.05-0.23,0.1-0.45,0.17-0.65
			C36.92,9.4,37.2,8.92,37.56,8.56z"/>
	</g>
</g>
<g>
	<g>
		<path class="st1" d="M13.35,35.32c-0.24,0-0.46,0.04-0.65,0.13c-0.19,0.08-0.39,0.13-0.62,0.13c-0.21,0-0.4-0.04-0.58-0.11
			c-0.18-0.07-0.32-0.2-0.42-0.37c-0.1-0.17-0.15-0.38-0.15-0.65v-7.62h2c0.45,0,0.83-0.15,1.13-0.44c0.3-0.29,0.45-0.65,0.45-1.08
			c0-0.45-0.15-0.82-0.45-1.12c-0.3-0.3-0.68-0.45-1.13-0.45h-2v-1.8c0-0.49-0.15-0.9-0.46-1.22s-0.71-0.49-1.2-0.49
			s-0.9,0.16-1.22,0.49c-0.33,0.33-0.49,0.74-0.49,1.22v1.8H6.26c-0.45,0-0.83,0.15-1.13,0.44c-0.3,0.29-0.45,0.65-0.45,1.08
			c0,0.45,0.15,0.83,0.45,1.13c0.3,0.3,0.68,0.45,1.13,0.45h1.29v7.77c0,0.92,0.14,1.64,0.42,2.17s0.63,0.91,1.06,1.17
			c0.42,0.25,0.87,0.41,1.35,0.48c0.48,0.07,0.91,0.1,1.31,0.1c0.66,0,1.27-0.17,1.84-0.51c0.57-0.34,0.86-0.77,0.86-1.29
			c0-0.43-0.11-0.77-0.32-1.01C13.85,35.44,13.62,35.32,13.35,35.32z"/>
		<path class="st1" d="M26.84,23.65c-0.38-0.32-0.86-0.48-1.42-0.48c-0.47,0-0.94,0.06-1.41,0.17c-0.47,0.11-0.91,0.29-1.32,0.52
			c-0.41,0.23-0.78,0.53-1.11,0.87c-0.24,0.25-0.43,0.54-0.6,0.84v-0.41c0-0.49-0.16-0.9-0.48-1.22c-0.32-0.33-0.72-0.49-1.21-0.49
			s-0.89,0.16-1.21,0.49c-0.32,0.33-0.48,0.74-0.48,1.22v11.62c0,0.49,0.16,0.9,0.48,1.22c0.32,0.33,0.72,0.49,1.21,0.49
			s0.89-0.16,1.21-0.49c0.32-0.33,0.48-0.74,0.48-1.22v-6.67c0-0.68,0.09-1.26,0.27-1.76c0.18-0.5,0.41-0.91,0.7-1.25
			c0.29-0.34,0.61-0.59,0.96-0.75c0.35-0.16,0.69-0.24,1.03-0.24c0.38,0,0.71,0.07,1,0.2c0.29,0.13,0.61,0.2,0.97,0.2
			c0.38,0,0.72-0.14,1.04-0.41c0.32-0.27,0.48-0.72,0.48-1.34C27.42,24.34,27.23,23.96,26.84,23.65z"/>
		<path class="st1" d="M42.87,23.65c-0.32-0.32-0.72-0.48-1.21-0.48c-0.49,0-0.89,0.16-1.21,0.49c-0.32,0.33-0.48,0.74-0.48,1.22
			v0.05c-0.17-0.16-0.34-0.31-0.55-0.47c-0.5-0.38-1.08-0.68-1.76-0.93c-0.68-0.24-1.42-0.37-2.22-0.37c-1.26,0-2.4,0.33-3.43,1
			c-1.03,0.67-1.85,1.58-2.46,2.76s-0.91,2.53-0.91,4.07c0,1.52,0.3,2.87,0.91,4.04c0.61,1.17,1.44,2.09,2.49,2.76
			c1.05,0.67,2.22,1,3.52,1c0.71,0,1.37-0.12,1.98-0.35s1.14-0.52,1.59-0.86c0.34-0.26,0.61-0.52,0.84-0.78
			c0,0.48,0.16,0.89,0.48,1.21c0.32,0.33,0.72,0.49,1.21,0.49c0.49,0,0.89-0.16,1.21-0.49s0.48-0.74,0.48-1.22v-11.9
			C43.34,24.38,43.19,23.96,42.87,23.65z M39.59,33.38c-0.35,0.71-0.83,1.28-1.45,1.69c-0.62,0.41-1.34,0.62-2.17,0.62
			c-0.81,0-1.52-0.21-2.14-0.62c-0.62-0.41-1.1-0.97-1.45-1.69c-0.35-0.71-0.52-1.51-0.52-2.39c0-0.9,0.17-1.71,0.52-2.42
			c0.35-0.71,0.83-1.28,1.45-1.69c0.62-0.41,1.33-0.62,2.14-0.62c0.83,0,1.55,0.21,2.17,0.62c0.62,0.41,1.1,0.98,1.45,1.69
			c0.35,0.71,0.52,1.52,0.52,2.42C40.11,31.87,39.94,32.67,39.59,33.38z"/>
		<path class="st1" d="M53.56,23.17c1.07,0,2,0.11,2.8,0.34c0.8,0.23,1.42,0.54,1.86,0.94c0.44,0.4,0.66,0.89,0.66,1.45
			c0,0.38-0.11,0.73-0.34,1.06c-0.23,0.33-0.55,0.49-0.98,0.49c-0.3,0-0.55-0.04-0.75-0.13c-0.2-0.08-0.37-0.19-0.52-0.32
			c-0.15-0.13-0.33-0.25-0.53-0.37c-0.19-0.11-0.47-0.2-0.86-0.27c-0.38-0.07-0.67-0.1-0.86-0.1c-0.96,0-1.77,0.21-2.43,0.62
			c-0.67,0.41-1.18,0.97-1.53,1.67c-0.36,0.7-0.53,1.52-0.53,2.43c0,0.9,0.18,1.7,0.55,2.41c0.37,0.7,0.87,1.26,1.52,1.67
			c0.65,0.41,1.39,0.62,2.24,0.62c0.47,0,0.87-0.03,1.21-0.08c0.34-0.06,0.62-0.14,0.84-0.25c0.26-0.15,0.5-0.31,0.7-0.48
			c0.21-0.17,0.52-0.25,0.93-0.25c0.49,0,0.86,0.15,1.13,0.46c0.26,0.31,0.39,0.69,0.39,1.14c0,0.47-0.26,0.9-0.79,1.28
			c-0.53,0.38-1.21,0.69-2.07,0.93s-1.78,0.35-2.77,0.35c-1.48,0-2.77-0.34-3.85-1.03c-1.09-0.68-1.93-1.62-2.52-2.8
			s-0.89-2.5-0.89-3.97c0-1.54,0.31-2.89,0.94-4.07c0.63-1.17,1.5-2.09,2.62-2.76C50.83,23.5,52.11,23.17,53.56,23.17z"/>
		<path class="st1" d="M74.46,31.72c0.34-0.28,0.52-0.65,0.53-1.1c0-1.01-0.19-1.97-0.58-2.87s-0.9-1.69-1.56-2.38
			c-0.66-0.68-1.41-1.22-2.27-1.62c-0.85-0.39-1.76-0.59-2.71-0.59c-1.24,0-2.41,0.32-3.52,0.96c-1.11,0.64-2,1.55-2.69,2.74
			c-0.69,1.19-1.03,2.63-1.03,4.32c0,1.44,0.31,2.74,0.94,3.88c0.63,1.14,1.53,2.05,2.7,2.72c1.17,0.67,2.56,1,4.15,1
			c0.94,0,1.85-0.15,2.73-0.46c0.88-0.31,1.57-0.67,2.05-1.08c0.52-0.41,0.79-0.87,0.79-1.38c0-0.38-0.14-0.7-0.41-0.98
			c-0.27-0.28-0.61-0.42-1.03-0.42c-0.3,0-0.62,0.08-0.96,0.25c-0.21,0.11-0.44,0.25-0.69,0.41c-0.25,0.16-0.59,0.3-1,0.41
			c-0.41,0.11-0.97,0.17-1.66,0.17c-0.75,0-1.46-0.18-2.12-0.55c-0.67-0.37-1.21-0.9-1.63-1.6c-0.25-0.41-0.41-0.88-0.51-1.39h9.28
			C73.73,32.14,74.12,32,74.46,31.72z M65.04,27.25c0.36-0.36,0.78-0.61,1.27-0.76c0.49-0.15,1.01-0.23,1.58-0.23
			c0.58,0,1.13,0.13,1.65,0.38c0.52,0.25,0.95,0.6,1.29,1.03c0.35,0.43,0.54,0.92,0.58,1.46v0.2h-7.37c0.05-0.23,0.1-0.45,0.17-0.65
			C64.4,28.08,64.68,27.6,65.04,27.25z"/>
	</g>
</g>
</svg>
